
CASCADE Topology V1, (c) Matra-Datavision
Locations 22
1
1.000000000000000 0.000000000000000 0.000000000000000 0.000000000000000 
0.000000000000000 1.000000000000000 0.000000000000000 0.000000000000000 
0.000000000000000 0.000000000000000 1.000000000000000 0.000000000000000 
1
1.000000000000000 0.000000000000000 0.000000000000000 0.000000000000000 
0.000000000000000 1.000000000000000 0.000000000000000 0.000000000000000 
0.000000000000000 0.000000000000000 1.000000000000000 0.000000000000000 
1
1.000000000000000 0.000000000000000 0.000000000000000 0.000000000000000 
0.000000000000000 1.000000000000000 0.000000000000000 0.000000000000000 
0.000000000000000 0.000000000000000 1.000000000000000 0.000000000000000 
2  2 1 3 -1 0
1
1.000000000000000 0.000000000000000 0.000000000000000 0.000000000000000 
0.000000000000000 1.000000000000000 0.000000000000000 0.000000000000000 
0.000000000000000 0.000000000000000 1.000000000000000 0.000000000000000 
1
1.000000000000000 0.000000000000000 0.000000000000000 0.000000000000000 
0.000000000000000 1.000000000000000 0.000000000000000 0.000000000000000 
0.000000000000000 0.000000000000000 1.000000000000000 0.000000000000000 
1
1.000000000000000 0.000000000000000 0.000000000000000 0.000000000000000 
0.000000000000000 1.000000000000000 0.000000000000000 0.000000000000000 
0.000000000000000 0.000000000000000 1.000000000000000 0.000000000000000 
2  5 1 6 1 7 -1 2 1 3 -1 0
2  5 1 6 1 7 -1 0
1
1.000000000000000 0.000000000000000 0.000000000000000 0.000000000000000 
0.000000000000000 1.000000000000000 0.000000000000000 0.000000000000000 
0.000000000000000 0.000000000000000 1.000000000000000 30.000000000000000 
2  5 1 6 1 7 -1 10 1 0
2  5 1 6 1 7 -1 10 1 2 1 3 -1 0
2  3 1 2 -1 10 -1 7 1 6 -1 5 -1 0
1
1.000000000000000 0.000000000000000 0.000000000000000 0.000000000000000 
0.000000000000000 1.000000000000000 0.000000000000000 0.000000000000000 
0.000000000000000 0.000000000000000 1.000000000000000 0.000000000000000 
1
1.000000000000000 0.000000000000000 0.000000000000000 0.000000000000000 
0.000000000000000 0.000000000000000 -1.000000000000000 0.000000000000000 
0.000000000000000 1.000000000000000 0.000000000000000 0.000000000000000 
2  14 1 15 1 3 -1 0
2  3 1 15 -1 14 -1 0
1
1.000000000000000 0.000000000000000 0.000000000000000 0.000000000000000 
0.000000000000000 1.000000000000000 0.000000000000000 366.886333531245100 
0.000000000000000 0.000000000000000 1.000000000000000 -0.000000000000081 
2  18 -1 3 1 15 -1 14 -1 0
2  7 -1 2 1 3 -1 0
2  5 1 6 1 0
2  7 -1 10 1 2 1 3 -1 0
Curve2ds 8
1 0.00000000000000000 0.00000000000000000 1.00000000000000000 0.00000000000000000 
1 0.00000000000000000 -366.88633353124509995 1.00000000000000000 0.00000000000000000 
8 -111.75999999999997669 0.00079354904517752
1 40.77437921047972935 -50.79999999999997584 0.00000000000000000 -1.00000000000000000 
8 -111.75999999999997669 0.00079354904517752
1 5.64410601449442950 -0.00000000000000673 0.00000000000000000 1.00000000000000000 
2 50.79999999999999716 -60.29999999999997584 -1.00000000000000000 -0.00000000000000000 0.00000000000000000 -1.00000000000000000 50.79999999999999716
1 0.00000000000000000 -101.59999999999998010 1.00000000000000000 0.00000000000000000 
8 -111.75999999999997669 0.00079354904517752
1 -40.77437921047970804 -50.79999999999997584 0.00000000000000000 -1.00000000000000000 
8 -111.75999999999997669 0.00079354904517752
1 3.78067194627494985 -0.00000000000000673 0.00000000000000000 1.00000000000000000 
Curves 12
1 0.00000000000000000 0.00000000000000000 0.00000000000000000 1.00000000000000000 0.00000000000000000 0.00000000000000000 
1 101.59999999999999432 0.00000000000000000 0.00000000000000000 0.00000000000000000 0.00000000000000000 1.00000000000000000 
2 50.79999999999999716 60.29999999999999716 0.00000000000000000 0.00000000000000000 0.00000000000000000 1.00000000000000000 1.00000000000000000 0.00000000000000000 0.00000000000000000 0.00000000000000000 1.00000000000000000 0.00000000000000000 50.79999999999999716
1 0.00000000000000000 0.00000000000000000 0.00000000000000000 0.00000000000000000 0.00000000000000000 1.00000000000000000 
1 101.59999999999999432 0.00000000000000000 0.00000000000000000 0.00000000000000000 1.00000000000000000 0.00000000000000000 
1 101.59999999999999432 101.59999999999999432 0.00000000000000000 -1.00000000000000000 0.00000000000000000 0.00000000000000000 
1 0.00000000000000000 101.59999999999999432 0.00000000000000000 0.00000000000000000 -1.00000000000000000 0.00000000000000000 
1 101.59999999999999432 101.59999999999999432 0.00000000000000000 0.00000000000000000 0.00000000000000000 1.00000000000000000 
1 91.57437921047971940 0.00000000000001339 30.00000000000000000 0.00000000000000000 -1.00000000000000000 0.00000000000000022 
2 50.79999999999999716 101.59999999999999432 60.29999999999997584 0.00000000000000000 -1.00000000000000000 0.00000000000000022 1.00000000000000000 0.00000000000000000 0.00000000000000000 -0.00000000000000000 0.00000000000000022 1.00000000000000000 50.79999999999999716
1 10.02562078952028202 0.00000000000001339 30.00000000000000000 0.00000000000000000 -1.00000000000000000 0.00000000000000022 
1 0.00000000000000000 101.59999999999999432 0.00000000000000000 0.00000000000000000 0.00000000000000000 1.00000000000000000 
Polygon3D 0
PolygonOnTriangulations 0
Surfaces 6
1 0.00000000000000000 0.00000000000000000 0.00000000000000000 0.00000000000000000 1.00000000000000000 0.00000000000000000 1.00000000000000000 0.00000000000000000 0.00000000000000000 0.00000000000000000 0.00000000000000000 -1.00000000000000000 
2 50.79999999999999716 0.00000000000001339 60.29999999999999716 0.00000000000000000 -1.00000000000000000 0.00000000000000022 1.00000000000000000 0.00000000000000000 0.00000000000000000 0.00000000000000000 0.00000000000000022 1.00000000000000000 50.79999999999999716
1 50.79999999999999005 50.79999999999999005 0.00000000000000000 0.00000000000000000 0.00000000000000000 1.00000000000000000 1.00000000000000000 0.00000000000000000 -0.00000000000000000 -0.00000000000000000 1.00000000000000000 0.00000000000000000 
1 101.59999999999999432 0.00000000000000000 0.00000000000000000 -1.00000000000000000 0.00000000000000000 0.00000000000000000 0.00000000000000000 1.00000000000000000 0.00000000000000000 0.00000000000000000 0.00000000000000000 -1.00000000000000000 
1 101.59999999999999432 101.59999999999999432 0.00000000000000000 0.00000000000000000 -1.00000000000000000 0.00000000000000000 -1.00000000000000000 0.00000000000000000 0.00000000000000000 -0.00000000000000000 -0.00000000000000000 -1.00000000000000000 
1 0.00000000000000000 101.59999999999999432 0.00000000000000000 1.00000000000000000 0.00000000000000000 -0.00000000000000000 0.00000000000000000 -1.00000000000000000 0.00000000000000000 0.00000000000000000 -0.00000000000000000 -1.00000000000000000 
Triangulations 0

TShapes 42
Ve
0.000000100000000
0.000000000000000 0.000000000000000 0.000000000000000
0 0

0101101
*
Ve
0.000000100000000
101.599999999999994 0.000000000000000 0.000000000000000
0 0

0101101
*
Ed
 0.000000100000000 1 1 0
1  1 0 0.000000000000000 101.599999999999994
0

0101000
+42 0 -41 0 *
Ed
 0.000000100000000 1 1 0
1  2 0 0.000000000000000 30.000000000000000
0

0101000
+41 9 -41 11 *
Ve
0.000000100001480
91.574379210480942 0.000000000000003 30.000000000000835
0 0

0101101
*
Ed
 0.000000100000000 1 1 0
1  1 0 91.574379210480942 101.599999999999994
0

0101000
+38 13 -41 0 *
Ve
0.000000100000225
10.025620789520097 0.000000000000003 30.000000000000128
0 0

0101101
*
Ed
 0.000000100000005 1 1 0
1  3 0 3.780671946274946 5.644106014494457
2  1 2 17 3.780671946274946 5.644106014494457
2  2 2 19 3.780671946274946 5.644106014494457
0

0101000
+36 17 -38 17 *
Ed
 0.000000100000000 1 1 0
1  1 0 0.000000000000000 10.025620789520097
0

0101000
+42 0 -36 13 *
Ed
 0.000000100000000 1 1 0
1  4 0 0.000000000000000 30.000000000000000
0

0101000
+42 9 -42 11 *
Wi

0101100
-40 8 -39 4 +37 12 +35 16 +34 12 +33 4 *
Fa
0  0.000000100000000 1 4

0111000
+32 0 *
Ve
0.000000100000000
101.599999999999994 101.599999999999994 0.000000000000000
0 0

0101101
*
Ed
 0.000000100000000 1 1 0
1  5 0 0.000000000000000 101.599999999999994
0

0101000
+41 0 -30 0 *
Ve
0.000000100000000
0.000000000000000 101.599999999999994 0.000000000000000
0 0

0101101
*
Ed
 0.000000100000000 1 1 0
1  6 0 0.000000000000000 101.599999999999994
0

0101000
+30 0 -28 0 *
Ed
 0.000000100000000 1 1 0
1  7 0 0.000000000000000 101.599999999999994
0

0101000
+28 0 -42 0 *
Wi

0101100
+40 0 +29 0 +27 0 +26 0 *
Fa
0  0.000000100000000 3 0

0111000
+25 21 *
Ed
 0.000000100000000 1 1 0
1  8 0 0.000000000000000 30.000000000000000
0

0101000
+30 9 -30 11 *
Wi

0101100
+39 0 -23 0 -29 9 +29 11 *
Fa
0  0.000000100000000 4 0

0111000
+22 0 *
Ve
0.000000100000036
91.574379210479719 101.599999999999994 30.000000000000000
0 0

0101101
*
Ed
 0.000000100000000 1 1 0
1  9 0 -101.599999999999980 0.000000000000010
2  3 3 22 -101.599999999999980 0.000000000000010
2  4 2 0 -101.599999999999980 0.000000000000010
0

0101000
+20 0 -38 0 *
Ed
 0.000000100000000 1 1 0
1  6 0 0.000000000000000 10.025620789520275
0

0101000
+30 0 -20 13 *
Wi

0101100
+19 0 +18 12 +29 12 +37 12 *
Fa
0  0.000000100000000 3 22

0111000
+17 0 *
Ve
0.000000100000045
10.025620789520275 101.599999999999994 30.000000000000000
0 0

0101101
*
Ed
 0.000000100000000 1 1 0
1  10 0 3.780671946274951 5.644106014494430
2  5 5 4 3.780671946274951 5.644106014494430
2  6 2 0 3.780671946274951 5.644106014494430
0

0101000
+15 0 -20 0 *
Ed
 0.000000100000000 1 1 0
1  11 0 -101.599999999999980 0.000000000000010
2  7 3 22 -101.599999999999980 0.000000000000010
2  8 2 0 -101.599999999999980 0.000000000000010
0

0101000
+15 0 -36 0 *
Wi

0101100
-35 16 +19 0 +14 0 -13 0 *
Fa
0  0.000000100000000 2 0

0111000
+12 0 *
Ed
 0.000000100000000 1 1 0
1  6 0 91.574379210479719 101.599999999999994
0

0101000
+15 13 -28 0 *
Wi

0101100
+26 12 +10 12 -13 0 +34 12 *
Fa
0  0.000000100000000 3 22

0111000
+9 0 *
Ed
 0.000000100000000 1 1 0
1  12 0 0.000000000000000 30.000000000000000
0

0101000
+28 9 -28 11 *
Wi

0101100
+7 0 -33 0 -26 9 +26 11 *
Fa
0  0.000000100000000 6 0

0111000
+6 0 *
Wi

0101100
-27 8 -7 4 +10 12 -14 0 +18 12 +23 4 *
Fa
0  0.000000100000000 5 4

0111000
+4 0 *
Sh

0101100
-31 0 -24 20 -21 4 +16 0 -11 0 +8 0 -5 4 -3 0 *
So

1100000
+2 0 *

+1 1 