
CASCADE Topology V1, (c) Matra-Datavision
Locations 11
1
1.000000000000000 0.000000000000000 0.000000000000000 0.000000000000000 
0.000000000000000 1.000000000000000 0.000000000000000 0.000000000000000 
0.000000000000000 0.000000000000000 1.000000000000000 0.000000000000000 
1
0.000000000000000 -1.000000000000000 0.000000000000000 50.799999999999983 
1.000000000000000 0.000000000000000 0.000000000000000 50.800000000000004 
0.000000000000000 0.000000000000000 1.000000000000000 30.000000000000000 
1
1.000000000000000 0.000000000000000 0.000000000000000 0.000000000000000 
0.000000000000000 1.000000000000000 0.000000000000000 0.000000000000000 
0.000000000000000 0.000000000000000 1.000000000000000 0.000000000000000 
2  1 1 2 1 3 -1 0
1
1.000000000000000 0.000000000000000 0.000000000000000 -0.000000000000000 
0.000000000000000 1.000000000000000 0.000000000000000 -0.000000000000000 
0.000000000000000 0.000000000000000 1.000000000000000 -18.000000000000000 
2  1 1 2 1 3 -1 5 1 0
2  3 1 2 -1 1 -1 0
2  5 -1 3 1 2 -1 1 -1 0
2  3 -1 0
2  1 1 2 1 0
2  3 -1 5 1 0
Curve2ds 16
1 0.00000000000000000 0.00000000000000000 0.00000000000000000 -1.00000000000000000 
1 6.28318530717958623 0.00000000000000000 0.00000000000000000 -1.00000000000000000 
1 0.00000000000000000 0.00000000000000000 1.00000000000000000 0.00000000000000000 
1 0.00000000000000000 -18.00000000000000000 1.00000000000000000 0.00000000000000000 
1 0.00000000000000000 0.00000000000000000 0.00000000000000000 -1.00000000000000000 
1 6.28318530717958623 0.00000000000000000 0.00000000000000000 -1.00000000000000000 
1 0.00000000000000000 0.00000000000000000 1.00000000000000000 0.00000000000000000 
1 0.00000000000000000 -18.00000000000000000 1.00000000000000000 0.00000000000000000 
1 0.00000000000000000 0.00000000000000000 0.00000000000000000 -1.00000000000000000 
1 6.28318530717958623 0.00000000000000000 0.00000000000000000 -1.00000000000000000 
1 0.00000000000000000 0.00000000000000000 1.00000000000000000 0.00000000000000000 
1 0.00000000000000000 -18.00000000000000000 1.00000000000000000 0.00000000000000000 
1 0.00000000000000000 0.00000000000000000 0.00000000000000000 -1.00000000000000000 
1 6.28318530717958623 0.00000000000000000 0.00000000000000000 -1.00000000000000000 
1 0.00000000000000000 0.00000000000000000 1.00000000000000000 0.00000000000000000 
1 0.00000000000000000 -18.00000000000000000 1.00000000000000000 0.00000000000000000 
Curves 8
1 78.02361107568206933 29.57638892431792854 30.00000000000000000 -0.00000000000000000 -0.00000000000000000 -1.00000000000000000 
2 -27.22361107568206862 -27.22361107568208638 0.00000000000000000 0.00000000000000000 0.00000000000000000 1.00000000000000000 1.00000000000000000 0.00000000000000000 -0.00000000000000000 -0.00000000000000000 1.00000000000000000 0.00000000000000000 6.00000000000000000
1 78.02361107568206933 84.02361107568208354 30.00000000000000000 -0.00000000000000000 -0.00000000000000000 -1.00000000000000000 
2 27.22361107568207927 -27.22361107568208283 0.00000000000000000 0.00000000000000000 0.00000000000000000 1.00000000000000000 1.00000000000000000 0.00000000000000000 -0.00000000000000000 -0.00000000000000000 1.00000000000000000 0.00000000000000000 6.00000000000000000
1 23.57638892431791078 84.02361107568208354 30.00000000000000000 -0.00000000000000000 -0.00000000000000000 -1.00000000000000000 
2 27.22361107568207572 27.22361107568207927 0.00000000000000000 0.00000000000000000 0.00000000000000000 1.00000000000000000 1.00000000000000000 0.00000000000000000 -0.00000000000000000 -0.00000000000000000 1.00000000000000000 0.00000000000000000 6.00000000000000000
1 23.57638892431791788 29.57638892431790723 30.00000000000000000 -0.00000000000000000 -0.00000000000000000 -1.00000000000000000 
2 -27.22361107568210414 27.22361107568206151 0.00000000000000000 0.00000000000000000 0.00000000000000000 1.00000000000000000 1.00000000000000000 0.00000000000000000 -0.00000000000000000 -0.00000000000000000 1.00000000000000000 0.00000000000000000 6.00000000000000000
Polygon3D 0
PolygonOnTriangulations 0
Surfaces 8
2 78.02361107568205512 23.57638892431792854 30.00000000000000000 0.00000000000000000 -0.00000000000000000 1.00000000000000000 0.00000000000000022 1.00000000000000000 0.00000000000000000 -1.00000000000000000 0.00000000000000022 0.00000000000000000 6.00000000000000000
1 50.79999999999999716 50.80000000000000426 30.00000000000000000 0.00000000000000000 0.00000000000000000 1.00000000000000000 1.00000000000000000 0.00000000000000000 -0.00000000000000000 -0.00000000000000000 1.00000000000000000 0.00000000000000000 
2 78.02361107568206933 78.02361107568208354 30.00000000000000000 0.00000000000000000 -0.00000000000000000 1.00000000000000000 0.00000000000000022 1.00000000000000000 0.00000000000000000 -1.00000000000000000 0.00000000000000022 0.00000000000000000 6.00000000000000000
1 50.79999999999999716 50.80000000000000426 30.00000000000000000 0.00000000000000000 0.00000000000000000 1.00000000000000000 1.00000000000000000 0.00000000000000000 -0.00000000000000000 -0.00000000000000000 1.00000000000000000 0.00000000000000000 
2 23.57638892431791078 78.02361107568208354 30.00000000000000000 0.00000000000000000 -0.00000000000000000 1.00000000000000000 0.00000000000000022 1.00000000000000000 0.00000000000000000 -1.00000000000000000 0.00000000000000022 0.00000000000000000 6.00000000000000000
1 50.79999999999999716 50.80000000000000426 30.00000000000000000 0.00000000000000000 0.00000000000000000 1.00000000000000000 1.00000000000000000 0.00000000000000000 -0.00000000000000000 -0.00000000000000000 1.00000000000000000 0.00000000000000000 
2 23.57638892431791433 23.57638892431790723 30.00000000000000000 0.00000000000000000 -0.00000000000000000 1.00000000000000000 0.00000000000000022 1.00000000000000000 0.00000000000000000 -1.00000000000000000 0.00000000000000022 0.00000000000000000 6.00000000000000000
1 50.79999999999999716 50.80000000000000426 30.00000000000000000 0.00000000000000000 0.00000000000000000 1.00000000000000000 1.00000000000000000 0.00000000000000000 -0.00000000000000000 -0.00000000000000000 1.00000000000000000 0.00000000000000000 
Triangulations 0

TShapes 37
Ve
0.000000100000000
-21.223611075682069 -27.223611075682086 0.000000000000000
0 0

0101101
*
Ed
 0.000000100000000 1 1 0
1  1 0 0.000000000000000 18.000000000000000
3  1 2CN 1 0 0.000000000000000 18.000000000000000
0

0101000
+37 4 -37 6 *
Ed
 0.000000100000000 1 1 0
1  2 0 0.000000000000000 6.283185307179586
2  3 1 7 0.000000000000000 6.283185307179586
2  4 1 8 0.000000000000000 6.283185307179586
0

0101100
+37 0 -37 0 *
Wi

0101100
+36 0 -36 0 -35 4 +35 6 *
Fa
0  0.000000100000000 1 0

0101000
+34 0 *
Wi

0101100
+35 0 *
Fa
0  0.000000100000000 2 0

0101000
+32 10 *
Sh

0101100
+33 0 +31 9 -31 11 *
So

0100000
+30 0 *
Ve
0.000000100000000
33.223611075682079 -27.223611075682083 0.000000000000000
0 0

0101101
*
Ed
 0.000000100000000 1 1 0
1  3 0 0.000000000000000 18.000000000000000
3  5 6CN 3 0 0.000000000000000 18.000000000000000
0

0101000
+28 4 -28 6 *
Ed
 0.000000100000000 1 1 0
1  4 0 0.000000000000000 6.283185307179586
2  7 3 7 0.000000000000000 6.283185307179586
2  8 3 8 0.000000000000000 6.283185307179586
0

0101100
+28 0 -28 0 *
Wi

0101100
+27 0 -27 0 -26 4 +26 6 *
Fa
0  0.000000100000000 3 0

0101000
+25 0 *
Wi

0101100
+26 0 *
Fa
0  0.000000100000000 4 0

0101000
+23 10 *
Sh

0101100
+24 0 +22 9 -22 11 *
So

0100000
+21 0 *
Ve
0.000000100000000
33.223611075682072 27.223611075682079 0.000000000000000
0 0

0101101
*
Ed
 0.000000100000000 1 1 0
1  5 0 0.000000000000000 18.000000000000000
3  9 10CN 5 0 0.000000000000000 18.000000000000000
0

0101000
+19 4 -19 6 *
Ed
 0.000000100000000 1 1 0
1  6 0 0.000000000000000 6.283185307179586
2  11 5 7 0.000000000000000 6.283185307179586
2  12 5 8 0.000000000000000 6.283185307179586
0

0101100
+19 0 -19 0 *
Wi

0101100
+18 0 -18 0 -17 4 +17 6 *
Fa
0  0.000000100000000 5 0

0101000
+16 0 *
Wi

0101100
+17 0 *
Fa
0  0.000000100000000 6 0

0101000
+14 10 *
Sh

0101100
+15 0 +13 9 -13 11 *
So

0100000
+12 0 *
Ve
0.000000100000000
-21.223611075682104 27.223611075682062 0.000000000000000
0 0

0101101
*
Ed
 0.000000100000000 1 1 0
1  7 0 0.000000000000000 18.000000000000000
3  13 14CN 7 0 0.000000000000000 18.000000000000000
0

0101000
+10 4 -10 6 *
Ed
 0.000000100000000 1 1 0
1  8 0 0.000000000000000 6.283185307179586
2  15 7 7 0.000000000000000 6.283185307179586
2  16 7 8 0.000000000000000 6.283185307179586
0

0101100
+10 0 -10 0 *
Wi

0101100
+9 0 -9 0 -8 4 +8 6 *
Fa
0  0.000000100000000 7 0

0101000
+7 0 *
Wi

0101100
+8 0 *
Fa
0  0.000000100000000 8 0

0101000
+5 10 *
Sh

0101100
+6 0 +4 9 -4 11 *
So

0100000
+3 0 *
Co

1100000
+29 0 +20 0 +11 0 +2 0 *

+1 0 